<?xml version="1.0" encoding="UTF-8" standalone="no"?>
<!-- Created with Inkscape (http://www.inkscape.org/) -->

<svg
   width="93.544228mm"
   height="65.497597mm"
   viewBox="0 0 93.544228 65.497597"
   version="1.1"
   id="svg1"
   xmlns="http://www.w3.org/2000/svg"
   xmlns:svg="http://www.w3.org/2000/svg">
  <defs
     id="defs1" />
  <g
     id="layer1"
     transform="translate(6.6145842,-75.40625)">
    <path
       id="path7-2"
       style="fill:#f5bb23;fill-opacity:1;stroke-width:0.476671"
       d="m 24.813017,75.40707 -5.17e-4,5.2e-4 c -6.756467,0 -13.686587,3.19486 -18.859314,8.69456 -9.015574,9.44908 -10.770025,23.22277 -10.027374,35.74984 l 9.989157,-11.42462 c 0.0041,-1.00755 0.13202,-15.46645 8.259937,-23.74438 1.913837,-1.94916 3.442892,-2.83862 5.695777,-3.31349 1.366079,-0.28796 2.279144,-0.30247 3.228743,-0.0512 2.287588,0.60548 3.468852,1.9738 3.678329,4.26021 0.366432,3.99955 -1.33212,9.09431 -4.260205,12.77751 -1.183436,1.48862 -3.223583,3.44746 -6.9634,6.68693 -3.537565,3.06427 -6.62395,5.95627 -8.757605,8.20622 -3.553585,3.74729 -3.996791,4.22717 -10.437605,11.29233 -0.9584,1.05131 -2.056235,2.24846 -2.439645,2.6603 -0.32432,0.34839 -0.538067,0.61073 -0.533817,0.64906 v 5.2e-4 5.1e-4 5.2e-4 l 5.16e-4,5.2e-4 5.17e-4,5.1e-4 v 5.2e-4 h 5.17e-4 v 5.2e-4 h 5.17e-4 5.16e-4 l 5.17e-4,5.1e-4 c 2.5e-4,4e-5 0.0011,-2e-5 0.0021,0 0.004,-4e-5 0.01124,-0.002 0.01964,-0.007 0.35304,-0.19254 2.315894,-1.64444 6.881234,-5.08806 5.503177,-4.15102 7.767272,-5.78272 10.029879,-7.22799 4.302267,-2.74814 9.591923,-5.07748 13.490649,-5.94124 1.838997,-0.4074 4.356356,-0.4103 5.432227,-0.007 3.222041,1.20953 4.381848,4.0423 3.496427,8.54056 -1.329722,6.75544 -7.371042,14.21703 -15.570109,19.23035 -1.865076,1.1404 -5.090088,2.69004 -6.682796,3.21117 -0.237115,0.0776 -0.362732,0.12821 -0.369487,0.1509 v 5.2e-4 5.1e-4 5.2e-4 c 1.5e-5,1.3e-4 1.3e-5,7.4e-4 0,0.001 v 5.2e-4 5.2e-4 h 5.17e-4 v 5.1e-4 5.2e-4 l 5.17e-4,5.2e-4 c 0.03853,0.037 0.645529,-0.0575 1.892908,-0.29146 8.33908,-1.56406 15.191199,-5.14774 20.879862,-10.92026 3.941908,-4.00001 6.407228,-8.32069 7.321008,-12.82919 0.34913,-1.7226 0.28792,-4.72484 -0.12558,-6.16293 -0.74478,-2.59031 -2.23777,-4.4005 -4.5775,-5.54902 -1.794729,-0.88099 -2.508706,-1.02182 -5.129919,-1.01182 -1.761618,0.007 -2.57884,0.0702 -3.753259,0.29042 -2.090028,0.39199 -4.05711,0.93101 -5.880262,1.61178 -0.0172,0.006 -0.02751,0.009 -0.03204,0.007 l -5.17e-4,-5.1e-4 h -5.17e-4 v -5.2e-4 h -5.16e-4 v -5.2e-4 l -5.17e-4,-5.1e-4 -5.17e-4,-5.2e-4 v -5.2e-4 -5.1e-4 c 0,-2.6e-4 -3.2e-5,-5.5e-4 0,-0.002 0.008,-0.0383 0.267771,-0.24322 0.660425,-0.51574 3.56083,-2.47141 7.218396,-5.82069 9.439217,-8.6434 2.191522,-2.78548 3.83138,-5.97647 4.600753,-8.95345 0.466588,-1.8054 0.541364,-4.38714 0.170015,-5.86373 -0.366381,-1.45686 -0.74787,-2.21119 -1.602486,-3.17087 -1.969166,-2.21123 -5.006335,-3.30729 -9.166882,-3.30729 z m 62.116627,0.34675 -1.75132,0.0739 c -2.72991,0.11482 -5.13659,0.74981 -7.614,2.00918 -4.97305,2.52799 -8.62709,6.55793 -12.71654,14.02343 -3.27402,5.97689 -6.26662,13.56938 -8.27236,20.9889 -0.41587,1.53835 -0.76806,2.84686 -0.78239,2.90784 -0.0143,0.061 -0.29578,-0.71122 -0.6258,-1.71618 -2.8521,-8.68518 -7.32287,-16.94389 -12.72584,-23.50864 -1.2658,-1.53799 -4.81543,-5.33508 -4.98729,-5.33508 h -5.1e-4 c -0.048,0.008 -0.18104,0.552 -0.29663,1.21492 -0.30204,1.73224 -0.968138,3.7228 -1.831411,5.47253 l -0.746724,1.51309 0.340031,0.40617 c 0.187033,0.22341 0.767701,0.9098 1.290364,1.52549 4.11605,4.84873 8.53452,12.40416 11.84424,20.25355 2.62865,6.23418 3.88861,9.84055 6.90655,19.76985 0.92127,3.03104 1.14893,3.58853 1.53014,3.74396 0.41762,0.17029 0.45116,0.16254 0.65526,-0.154 0.25994,-0.40314 0.59655,-1.56403 1.24437,-4.28966 2.10349,-8.85034 5.88815,-21.02957 8.66872,-27.89752 3.45482,-8.53336 8.61443,-18.17786 12.65555,-23.65592 2.04192,-2.76799 4.21948,-5.08169 6.16707,-6.55309 z m -81.4617,46.45143 -9.287288,7.47293 0.313159,11.22567 8.594308,-4.66793 z" />
  </g>
</svg>
